<svg xmlns="http://www.w3.org/2000/svg" role="img" viewBox="0 0 24 24">
  <style>
    @media (prefers-color-scheme: dark) {
      path { fill: white; }
    }
    @media (prefers-color-scheme: light) {
      path { fill: black; }
    }
  </style>
  <title>Linux icon</title>
  <path d="M12.503 0c-.155 0-.315.008-.479.021-4.227.333-3.106 4.807-3.17 6.298-.077 1.093-.3 1.954-1.051 3.021-.885 1.051-2.127 2.75-2.716 4.521-.278.832-.41 1.684-.287 2.489-.039.034-.076.068-.111.135-.26.268-.449.601-.662.839-.199.199-.485.267-.797.4-.313.136-.658.269-.864.681-.09.188-.136.393-.132.601 0 .199.027.401.055.536.058.399.116.729.039.97-.248.68-.279 1.146-.105 1.485.174.334.535.469.939.601.811.2 1.91.135 2.775.599.926.467 1.866.671 2.616.47.526-.115.97-.463 1.208-.945.587-.003 1.23-.269 2.26-.334.699-.058 1.574.267 2.578.199.025.135.063.199.114.334l.003.003c.391.778 1.113 1.132 1.884 1.071.771-.06 1.592-.536 2.257-1.306.631-.765 1.683-1.084 2.378-1.503.348-.199.629-.469.649-.853.023-.4-.199-.812-.714-1.377v-.097l-.003-.003c-.17-.2-.25-.535-.338-.926-.085-.401-.182-.786-.492-1.046h-.003c-.059-.054-.123-.067-.188-.135-.056-.038-.121-.062-.19-.064.431-1.278.264-2.55-.173-3.694-.533-1.41-1.465-2.638-2.175-3.483-.796-1.005-1.576-1.957-1.561-3.369.027-2.152.237-6.133-3.544-6.139z"/>
</svg>
