<svg role="img" viewBox="0 0 24 24" xmlns="http://www.w3.org/2000/svg">
  <style>
    @media (prefers-color-scheme: dark) {
      .light { display: none; }
      .dark { display: block; }
    }
    @media (prefers-color-scheme: light) {
      .light { display: block; }
      .dark { display: none; }
    }
  </style>
  <title>Linux icon</title>
  <!-- Light mode (Black) -->
  <path class="light" fill="#000000" d="M12.5 0c-4.23.33-3.1 4.8-3.17 6.3-.08 1.1-.3 1.96-1.05 3.02-.89 1.05-2.13 2.75-2.72 4.52-.28.83-.41 1.69-.29 2.49-.04.03-.08.07-.11.13-.26.27-.45.6-.66.84-.2.2-.48.27-.8.4-.31.14-.66.27-.86.68-.09.19-.14.39-.13.6 0 .2.03.4.06.54.06.4.12.73.04.97-.25.68-.28 1.15-.11 1.49.17.33.53.47.94.6.81.2 1.91.14 2.78.6.92.46 1.87.67 2.62.47.53-.11.97-.46 1.21-.94.59 0 1.23-.27 2.26-.33.7-.06 1.57.26 2.58.2.03.13.07.19.11.33.39.78 1.11 1.13 1.88 1.07.77-.06 1.59-.54 2.26-1.31.63-.77 1.69-1.08 2.38-1.5.35-.2.63-.47.65-.85.02-.4-.2-.81-.71-1.38v-.1c-.17-.2-.25-.53-.34-.92-.09-.4-.18-.79-.49-1.05-.06-.06-.12-.07-.19-.14-.06-.04-.12-.06-.19-.07.43-1.28.26-2.55-.17-3.69-.53-1.41-1.46-2.64-2.18-3.48-.8-1.01-1.58-1.96-1.56-3.37.03-2.16.24-6.13-3.54-6.14Z"/>
  
  <!-- Dark mode (White) -->
  <path class="dark" fill="#FFFFFF" d="M12.5 0c-4.23.33-3.1 4.8-3.17 6.3-.08 1.1-.3 1.96-1.05 3.02-.89 1.05-2.13 2.75-2.72 4.52-.28.83-.41 1.69-.29 2.49-.04.03-.08.07-.11.13-.26.27-.45.6-.66.84-.2.2-.48.27-.8.4-.31.14-.66.27-.86.68-.09.19-.14.39-.13.6 0 .2.03.4.06.54.06.4.12.73.04.97-.25.68-.28 1.15-.11 1.49.17.33.53.47.94.6.81.2 1.91.14 2.78.6.92.46 1.87.67 2.62.47.53-.11.97-.46 1.21-.94.59 0 1.23-.27 2.26-.33.7-.06 1.57.26 2.58.2.03.13.07.19.11.33.39.78 1.11 1.13 1.88 1.07.77-.06 1.59-.54 2.26-1.31.63-.77 1.69-1.08 2.38-1.5.35-.2.63-.47.65-.85.02-.4-.2-.81-.71-1.38v-.1c-.17-.2-.25-.53-.34-.92-.09-.4-.18-.79-.49-1.05-.06-.06-.12-.07-.19-.14-.06-.04-.12-.06-.19-.07.43-1.28.26-2.55-.17-3.69-.53-1.41-1.46-2.64-2.18-3.48-.8-1.01-1.58-1.96-1.56-3.37.03-2.16.24-6.13-3.54-6.14Z"/>
</svg>
